<svg xmlns="http://www.w3.org/2000/svg" xmlns:xlink="http://www.w3.org/1999/xlink" x="0px" y="0px" viewBox="0 0 263.8 59.3" xml:space="preserve"><path fill="#000000" d="M115.2,3.8c0.4-0.6,1.2-0.9,1.9-0.9c0.8,0,1.5,0.3,1.9,0.9c0.3,0.4,0.5,0.9,0.5,1.8v2.9h-0.7V5.7c0-0.7-0.1-1.1-0.3-1.3c-0.3-0.5-0.8-0.7-1.4-0.7c-0.8,0-1.5,0.4-1.9,1.1v3.8h-0.7V0h0.7V3.8z"/><path fill="#000000" d="M123.5,3.6c-1.2,0-2.1,1-2.1,2.2s0.9,2.2,2.1,2.2c1.2,0,2.1-1,2.1-2.2S124.8,3.6,123.5,3.6 M123.5,8.6c-1.6,0-2.8-1.3-2.8-2.9s1.2-2.9,2.8-2.9c1.6,0,2.8,1.3,2.8,2.9S125.2,8.6,123.5,8.6"/><path fill="#000000" d="M130.7,3.7h-1.9v3c0,0.5,0.1,0.7,0.2,0.9c0.2,0.2,0.5,0.4,0.9,0.4c0.2,0,0.4,0,0.6-0.1l0.1,0.6c-0.2,0.1-0.5,0.1-0.7,0.1c-0.5,0-1.1-0.2-1.5-0.6c-0.2-0.3-0.4-0.7-0.4-1.3v-3h-1.5V3h1.5V1.6h0.7V3h1.9V3.7z"/><path fill="#000000" d="M132,5.2h3.7c-0.1-1-0.9-1.6-1.8-1.6C132.9,3.6,132.2,4.3,132,5.2 M136.2,7.6c-0.4,0.5-1.2,1-2.2,1c-1.5,0-2.7-1.2-2.7-2.9c0-1.6,1.1-2.9,2.6-2.9c1.5,0,2.5,1.2,2.5,2.7c0,0,0,0.1,0,0.2h-4.5C132,7,132.7,8,134,8c0.7,0,1.3-0.3,1.8-0.8L136.2,7.6z"/><rect x="137.7" y="0" fill="#000000" width="0.7" height="8.5"/><path fill="#000000" d="M140.6,7.4c0.3,0,0.6,0.3,0.6,0.6c0,0.3-0.3,0.6-0.6,0.6c-0.3,0-0.6-0.3-0.6-0.6C139.9,7.7,140.2,7.4,140.6,7.4"/><path fill="#000000" d="M149.2,3.6c-0.1,0-0.3,0-0.3,0c-0.7,0-1.4,0.5-1.7,1.2v3.7h-0.7V3h0.7v0.7c0.3-0.4,0.9-0.8,1.7-0.8c0.1,0,0.3,0,0.4,0L149.2,3.6z"/><path fill="#000000" d="M150.3,3h0.7v5.5h-0.7V3z M150.7,0.5c0.3,0,0.6,0.3,0.6,0.6c0,0.3-0.3,0.6-0.6,0.6c-0.3,0-0.6-0.3-0.6-0.6C150.1,0.8,150.3,0.5,150.7,0.5"/><path fill="#000000" d="M152.5,7.3c0.5,0.4,1,0.7,1.7,0.7c0.7,0,1.3-0.4,1.3-1c0-1.4-3.2-0.6-3.2-2.5c0-1,0.9-1.6,1.9-1.6c0.7,0,1.4,0.3,1.8,0.5L155.5,4c-0.5-0.3-0.8-0.4-1.4-0.4c-0.6,0-1.2,0.3-1.2,0.9c0,1.2,3.2,0.6,3.2,2.5c0,1-0.9,1.6-1.9,1.6c-0.9,0-1.6-0.3-2.1-0.8L152.5,7.3z"/><path fill="#000000" d="M160.7,3.7h-1.9v3c0,0.5,0.1,0.7,0.2,0.9c0.2,0.2,0.5,0.4,0.9,0.4c0.2,0,0.4,0,0.6-0.1l0.1,0.6c-0.2,0.1-0.5,0.1-0.7,0.1c-0.5,0-1.1-0.2-1.5-0.6c-0.2-0.3-0.4-0.7-0.4-1.3v-3h-1.5V3h1.5V1.6h0.7V3h1.9V3.7z"/><path fill="#000000" d="M164.1,3.6c-1.2,0-2.1,1-2.1,2.2s0.9,2.2,2.1,2.2c1.2,0,2.1-1,2.1-2.2S165.3,3.6,164.1,3.6 M164.1,8.6c-1.6,0-2.8-1.3-2.8-2.9s1.2-2.9,2.8-2.9c1.6,0,2.8,1.3,2.8,2.9S165.7,8.6,164.1,8.6"/><path fill="#000000" d="M170.9,3.6c-0.1,0-0.3,0-0.3,0c-0.7,0-1.4,0.5-1.7,1.2v3.7h-0.7V3h0.7v0.7c0.3-0.4,0.9-0.8,1.7-0.8c0.1,0,0.3,0,0.4,0L170.9,3.6z"/><path fill="#000000" d="M175.4,6.1c-0.3-0.2-0.9-0.5-1.5-0.5c-0.9,0-1.6,0.4-1.6,1.2c0,0.6,0.6,1.1,1.3,1.1s1.4-0.5,1.8-1.2V6.1z	M171.5,6.9c0-1.3,1.2-1.8,2.2-1.8c0.8,0,1.5,0.3,1.6,0.4V5.3c0-0.6-0.1-0.9-0.3-1.2c-0.3-0.4-0.8-0.6-1.3-0.6c-0.7,0-1.2,0.3-1.5,0.6l-0.4-0.6c0.3-0.3,1-0.7,1.9-0.7c0.7,0,1.4,0.3,1.8,0.9c0.3,0.4,0.4,0.8,0.4,1.6v3.2h-0.7V7.8c-0.4,0.5-1.1,0.9-1.8,0.9C172.3,8.6,171.5,7.8,171.5,6.9"/><path fill="#000000" d="M178.2,3.8c0.4-0.6,1.2-0.9,1.9-0.9c0.8,0,1.5,0.3,1.9,0.9c0.3,0.4,0.5,0.9,0.5,1.8v2.9h-0.7V5.7c0-0.7-0.1-1.1-0.3-1.3c-0.3-0.5-0.8-0.7-1.4-0.7c-0.8,0-1.5,0.4-1.9,1.1v3.8h-0.7V3h0.7V3.8z"/><path fill="#000000" d="M187.2,3.7h-1.9v3c0,0.5,0.1,0.7,0.2,0.9c0.2,0.2,0.5,0.4,0.9,0.4c0.2,0,0.4,0,0.6-0.1l0.1,0.6c-0.2,0.1-0.5,0.1-0.7,0.1c-0.5,0-1.1-0.2-1.5-0.6c-0.2-0.3-0.4-0.7-0.4-1.3v-3h-1.5V3h1.5V1.6h0.7V3h1.9V3.7z"/><path fill="#000000" d="M188.5,5.2h3.7c-0.1-1-0.9-1.6-1.8-1.6C189.4,3.6,188.7,4.3,188.5,5.2 M192.7,7.6c-0.4,0.5-1.2,1-2.2,1c-1.5,0-2.7-1.2-2.7-2.9c0-1.6,1.1-2.9,2.6-2.9c1.5,0,2.5,1.2,2.5,2.7c0,0,0,0.1,0,0.2h-4.5c0,1.2,0.8,2.1,2.1,2.1c0.7,0,1.3-0.3,1.8-0.8L192.7,7.6z"/><path fill="#000000" d="M194.6,7.4c0.3,0,0.6,0.3,0.6,0.6c0,0.3-0.3,0.6-0.6,0.6c-0.3,0-0.6-0.3-0.6-0.6C194,7.7,194.3,7.4,194.6,7.4"/><path fill="#000000" d="M200.6,3h0.7v5.5h-0.7V3z M200.9,0.5c0.3,0,0.6,0.3,0.6,0.6c0,0.3-0.3,0.6-0.6,0.6c-0.3,0-0.6-0.3-0.6-0.6C200.3,0.8,200.6,0.5,200.9,0.5"/><path fill="#000000" d="M207.2,4.7c-0.2-0.4-1-1.1-2-1.1c-0.5,0-0.9,0.2-1.3,0.5c-0.5,0.4-0.8,1-0.8,1.7c0,0.8,0.3,1.4,0.9,1.8c0.3,0.2,0.8,0.4,1.2,0.4c0.8,0,1.5-0.5,2-1.2V4.7z M203.6,8.1c-0.7-0.5-1.2-1.4-1.2-2.3c0-0.9,0.4-1.7,1-2.2c0.5-0.4,1.1-0.6,1.7-0.6c0.8,0,1.5,0.3,2,0.9V0h0.7v8.5h-0.7V7.7c-0.4,0.6-1.1,0.9-2,0.9C204.7,8.6,204.2,8.5,203.6,8.1"/><path fill="#000000" d="M209.5,3h0.7v5.5h-0.7V3z M209.9,0.5c0.3,0,0.6,0.3,0.6,0.6c0,0.3-0.3,0.6-0.6,0.6c-0.3,0-0.6-0.3-0.6-0.6C209.3,0.8,209.5,0.5,209.9,0.5"/><rect x="211.8" y="0" fill="#000000" width="0.7" height="8.5"/><rect x="214.2" y="0" fill="#000000" width="0.7" height="8.5"/><path fill="#000000" d="M216.5,3h0.7v5.5h-0.7V3z M216.8,0.5c0.3,0,0.6,0.3,0.6,0.6c0,0.3-0.3,0.6-0.6,0.6c-0.3,0-0.6-0.3-0.6-0.6C216.2,0.8,216.5,0.5,216.8,0.5"/><path fill="#000000" d="M221.2,3.6c-1.2,0-2.1,1-2.1,2.2s0.9,2.2,2.1,2.2c1.2,0,2.1-1,2.1-2.2S222.4,3.6,221.2,3.6 M221.2,8.6c-1.6,0-2.8-1.3-2.8-2.9s1.2-2.9,2.8-2.9c1.6,0,2.8,1.3,2.8,2.9S222.8,8.6,221.2,8.6"/><path fill="#000000" d="M225.6,7.4c0.3,0,0.6,0.3,0.6,0.6c0,0.3-0.3,0.6-0.6,0.6c-0.3,0-0.6-0.3-0.6-0.6C225,7.7,225.3,7.4,225.6,7.4"/><path fill="#000000" d="M83.5,30.7c-0.9-0.8-2.1-1.4-3.4-1.4c-2.6,0-4.8,2.2-4.8,4.8c0,2.7,2.2,4.8,4.8,4.8c1.3,0,2.5-0.6,3.4-1.4V30.7z M84.9,28.2v11.6h-1.4v-0.4c-1,0.6-2.1,1-3.4,1c-3.4,0-6.2-2.8-6.2-6.2c0-3.4,2.8-6.2,6.2-6.2c1.3,0,2.4,0.4,3.4,1v-0.8c0-2.7-1.8-4.5-4.3-4.5c-0.2,0-0.4,0-0.8,0v-1.4c0.3,0,0.6,0,0.8,0C82.3,22.3,84.9,24.4,84.9,28.2"/><rect x="90.5" y="12.4" fill="#000000" width="1.4" height="27.4"/><path fill="#000000" d="M111.7,31.3c0-4.2-3.5-7.6-7.7-7.6c-2.1,0-4,0.9-5.4,2.2v10.8c1.4,1.3,3.3,2.2,5.4,2.2C108.2,39,111.7,35.5,111.7,31.3 M98.6,38.5v1.3h-1.4V12.4h1.4v11.8c1.5-1.2,3.4-1.8,5.4-1.8c5,0,9,4,9,9c0,5-4,9-9,9C101.9,40.4,100.1,39.7,98.6,38.5"/><path fill="#000000" d="M130.5,25.6c-1.4-1.2-3.1-1.9-5-1.9c-4.2,0-7.7,3.5-7.7,7.7c0,1.9,0.7,3.7,1.9,5L130.5,25.6z M116.4,31.4c0-5,4-9,9-9c2.5,0,4.7,1,6.4,2.6c0.2,0.2,0.4,0.4,0.6,0.6l-11.7,11.7c1.3,1.1,3,1.7,4.8,1.7c2.1,0,4-0.9,5.4-2.2l1,1c-1.6,1.6-3.9,2.6-6.4,2.6C120.5,40.4,116.4,36.4,116.4,31.4"/><path fill="#000000" d="M136,39.8V22.9h1.4v1.4c0.8-1.1,2.3-2,4.3-2v1.4h-0.1c-1.8,0-3.5,1.1-4.2,2.6v13.5H136z"/><path fill="#000000" d="M155.5,29.1c0-3-2.5-5.4-5.5-5.4s-5.5,2.5-5.5,5.5c0,3,2.5,5.4,5.5,5.4S155.5,32.1,155.5,29.1 M159,38.7c0,5-4,9-9,9c-2.3,0-4.6-0.8-6.3-2.6l1-1c1.5,1.5,3.4,2.2,5.4,2.2c4.1,0,7.7-3.4,7.7-7.7c0-1.8-0.7-3.8-2.2-5.4c-1.2,1.6-3.2,2.6-5.4,2.6c-3.8,0-6.8-3-6.8-6.8c0-3.8,3-6.8,6.8-6.8c2.1,0,4,0.9,5.2,2.4l1-1.8h1.6l-1.6,3.1c0.5,1,0.8,2,0.8,3.1c0,1.1-0.2,2.1-0.7,3C158.2,34.2,159,36.5,159,38.7"/><path fill="#000000" d="M178.8,31.3c0-4.2-3.5-7.6-7.7-7.6c-4.2,0-7.7,3.5-7.7,7.7c0,4.2,3.5,7.6,7.7,7.6C175.3,39,178.8,35.5,178.8,31.3 M162.1,31.4c0-5,4-9,9-9s9,4,9,9c0,5-4,9-9,9S162.1,36.4,162.1,31.4"/><path fill="#000000" d="M195.1,31.4c0-5,4-9,9-9c2.5,0,4.7,1,6.4,2.7l-1,0.9c-1.4-1.3-3.3-2.2-5.4-2.2c-4.2,0-7.7,3.5-7.7,7.7c0,4.2,3.5,7.6,7.7,7.6c2.1,0,4-0.9,5.4-2.2l1,1c-1.6,1.6-3.9,2.6-6.4,2.6C199.2,40.4,195.1,36.4,195.1,31.4"/><path fill="#000000" d="M229.2,31.3c0-4.2-3.5-7.6-7.7-7.6c-4.2,0-7.7,3.5-7.7,7.7c0,4.2,3.5,7.6,7.7,7.6C225.7,39,229.2,35.5,229.2,31.3 M212.5,31.4c0-5,4-9,9-9s9,4,9,9c0,5-4,9-9,9S212.5,36.4,212.5,31.4"/><rect x="235" y="12.4" fill="#000000" width="1.4" height="27.4"/><rect x="241.7" y="12.4" fill="#000000" width="1.4" height="27.4"/><path fill="#000000" d="M261.6,25.6c-1.4-1.2-3.1-1.9-5-1.9c-4.2,0-7.7,3.5-7.7,7.7c0,1.9,0.7,3.7,1.9,5L261.6,25.6z M247.6,31.4c0-5,4-9,9-9c2.5,0,4.7,1,6.4,2.6c0.2,0.2,0.4,0.4,0.6,0.6l-11.7,11.7c1.3,1.1,3,1.7,4.8,1.7c2.1,0,4-0.9,5.4-2.2l1,1c-1.6,1.6-3.9,2.6-6.4,2.6C251.6,40.4,247.6,36.4,247.6,31.4"/><path fill="#000000" d="M176.9,55.4c-0.2-0.4-1-1.1-2-1.1c-0.5,0-0.9,0.2-1.3,0.5c-0.5,0.4-0.8,1-0.8,1.7c0,0.8,0.3,1.4,0.9,1.8c0.3,0.2,0.8,0.4,1.2,0.4c0.8,0,1.5-0.5,2-1.2V55.4z M173.3,58.8c-0.7-0.5-1.2-1.4-1.2-2.3c0-0.9,0.4-1.7,1-2.2c0.5-0.4,1.1-0.6,1.7-0.6c0.8,0,1.5,0.3,2,0.9v-3.8h0.7v8.5h-0.7v-0.8c-0.4,0.6-1.1,0.9-2,0.9C174.4,59.3,173.8,59.2,173.3,58.8"/><path fill="#000000" d="M182.6,56.8c-0.3-0.2-0.9-0.5-1.5-0.5c-0.9,0-1.6,0.4-1.6,1.2c0,0.6,0.6,1.1,1.3,1.1s1.4-0.5,1.8-1.2V56.8zM178.8,57.6c0-1.3,1.2-1.8,2.2-1.8c0.8,0,1.5,0.3,1.6,0.4V56c0-0.6-0.1-0.9-0.3-1.2c-0.3-0.4-0.8-0.6-1.3-0.6c-0.7,0-1.2,0.3-1.5,0.6l-0.4-0.6c0.3-0.3,1-0.7,1.9-0.7c0.7,0,1.4,0.3,1.8,0.9c0.3,0.4,0.4,0.8,0.4,1.6v3.2h-0.7v-0.7c-0.4,0.5-1.1,0.9-1.8,0.9C179.6,59.3,178.8,58.5,178.8,57.6"/><rect x="184.8" y="50.7" fill="#000000" width="0.7" height="8.5"/><polygon fill="#000000" points="190.4,51.9 192.3,50.8 192.7,50.8 192.7,59.2 192,59.2 192,51.8 190.4,52.7 "/><path fill="#000000" d="M195.5,52.8c0,0.8,0.6,1.4,1.5,1.4c0.9,0,1.5-0.6,1.5-1.4c0-0.8-0.6-1.4-1.5-1.4S195.5,52,195.5,52.8	M199.1,56.8c0-1-0.8-1.9-2-1.9c-1.2,0-2,0.8-2,1.9c0,1,0.8,1.9,2,1.9C198.2,58.6,199.1,57.8,199.1,56.8 M194.3,56.8c0-1,0.6-1.8,1.5-2.3c-0.6-0.4-0.9-1-0.9-1.7c0-1.2,0.9-2.1,2.2-2.1s2.2,0.9,2.2,2.1c0,0.7-0.3,1.3-0.9,1.7c0.9,0.4,1.5,1.3,1.5,2.3c0,1.5-1.2,2.6-2.8,2.6C195.4,59.3,194.3,58.2,194.3,56.8"/><path fill="#000000" d="M204.7,54.9c0.2-0.4,0.5-0.8,0.5-1.5c0-1.2-0.9-2.1-2.1-2.1c-1.2,0-2.1,0.9-2.1,2.1c0,1.2,0.9,2.1,2.1,2.1C203.8,55.5,204.3,55.3,204.7,54.9 M204,56.1c-0.3,0.1-0.5,0.1-0.9,0.1c-1.6,0-2.7-1.2-2.7-2.8c0-1.6,1.2-2.8,2.8-2.8c1.6,0,2.8,1.2,2.8,2.7c0,0.8-0.3,1.4-0.6,1.8l-2.6,4H202L204,56.1z"/><path fill="#000000" d="M211.1,54.9c0.2-0.4,0.5-0.8,0.5-1.5c0-1.2-0.9-2.1-2.1-2.1c-1.2,0-2.1,0.9-2.1,2.1c0,1.2,0.9,2.1,2.1,2.1C210.2,55.5,210.7,55.3,211.1,54.9 M210.4,56.1c-0.3,0.1-0.5,0.1-0.9,0.1c-1.6,0-2.7-1.2-2.7-2.8c0-1.6,1.2-2.8,2.8-2.8c1.6,0,2.8,1.2,2.8,2.7c0,0.8-0.3,1.4-0.6,1.8l-2.6,4h-0.8L210.4,56.1z"/><path fill="#000000" d="M58.3,55.3c-0.7-4.1-1.8-8.1-3.4-11.9c-1.7-4.1-4-8-6.7-11.5l0,0c2.5-3.4,4.6-7,6.3-11c2-4.7,3.3-9.7,3.8-14.8V55.3z M36.6,58.4V24.4c1.7,1.3,3.3,2.7,4.9,4.3c1,1,2,2.1,3,3.2c0.6,0.7,1.2,1.5,1.8,2.3c2.4,3.2,4.3,6.6,5.9,10.3c1.9,4.4,3.1,9.1,3.6,13.8H36.6z M33.8,58.4h-2.9v-41C30,16.9,29,16.4,28,16c-0.4-0.2-0.8-0.4-1.2-0.5c-0.1,0-0.2-0.1-0.3-0.1c-0.4-0.1-0.7-0.3-1.1-0.4c-2-0.8-4-1.4-6.1-2c-1.1-0.3-2.3-0.5-3.4-0.8c-0.5,0.4-0.9,0.8-1.4,1.3c-0.4,0.4-0.8,0.8-1.1,1.2c3.3,0.5,6.6,1.3,9.8,2.4c0.6,0.2,1.1,0.4,1.7,0.6c0.3,0.1,0.5,0.2,0.8,0.3c0.8,0.3,1.6,0.7,2.3,1.1V56c-3.1-0.2-6-0.8-8.8-2c-1.2-0.5-2.4-1.1-3.5-1.8c-1.1-0.7-2.2-1.5-3.3-2.4c-0.5-0.5-1.1-0.9-1.6-1.5c-2.4-2.4-4.3-5.2-5.7-8.4c-1.4-3.3-2.1-6.7-2.1-10.3c0-3.6,0.7-7,2.1-10.3c1.3-3.1,3.2-6,5.7-8.4c2.4-2.4,5.2-4.3,8.4-5.7c3.3-1.4,6.7-2.1,10.3-2.1L30,0.8h3.8V58.4z M0.7,58.4V35c0.4,2.1,1,4.1,1.8,6.1C4,44.5,6,47.5,8.6,50.1c0.1,0.1,0.1,0.1,0.2,0.2c0.9,0.9,1.8,1.7,2.7,2.4c2,1.6,4.2,2.9,6.6,3.9c1.8,0.8,3.7,1.4,5.6,1.7H0.7z M0.7,0.8h24c-2.3,0.4-4.5,1-6.6,1.9C14.6,4.2,11.5,6.3,8.8,9c-2.7,2.7-4.8,5.8-6.3,9.3c-0.8,2-1.4,4-1.8,6.1V0.8z M36.6,0.8h19.1c0,6.6-1.4,13-3.9,19c-1.5,3.5-3.3,6.8-5.5,9.8c-0.9-1-1.8-2-2.7-2.9c-2.1-2.1-4.5-4.1-6.9-5.8V0.8z M0,59.1h59v-59H0V59.1z"/><rect x="233" y="4.1" fill="#000000" width="30.8" height="0.7"/><rect x="220.7" y="54.7" fill="#000000" width="43.1" height="0.7"/><rect x="74" y="4.1" fill="#000000" width="32.3" height="0.7"/><rect x="74" y="54.7" fill="#000000" width="89.9" height="0.7"/></svg>