<?xml version="1.0" encoding="utf-8"?>
<!-- Generator: Adobe Illustrator 23.1.0, SVG Export Plug-In . SVG Version: 6.00 Build 0)  -->
<svg version="1.1" id="Ebene_1" xmlns="http://www.w3.org/2000/svg" xmlns:xlink="http://www.w3.org/1999/xlink" x="0px" y="0px"
	 width="105.5px" height="81.7px" viewBox="0 0 105.5 81.7" style="enable-background:new 0 0 105.5 81.7;" xml:space="preserve">
<style type="text/css">
	.st0{fill:#575756;}
	.st1{fill:#FFFFFF;}
	.st2{fill:#BCA37A;}
	.st3{fill:#6B6B6A;}
</style>
<g>
	<path class="st0" d="M80,40.7V6.8H38.8v33.9c0,1.5,0.2,2.9,0.5,4.3l4.8-8.1l3.2,1l5.5-8.2l6.5,7.1l1.9-1.5l4.4,5.7l3.3-4.9l6,9.5
		l1.2-1.7l2.2,4.5C79.4,46.4,80,43.6,80,40.7L80,40.7z"/>
	<path class="st1" d="M77.7,47.3c0.9-2,1.4-4.5,1.4-7.1V7.6H39.6v32.6c0,1.2,0.1,2.4,0.4,3.6l4.1-6.9l3.2,1l5.5-8.2l6.5,7.1l1.9-1.5
		l4.4,5.7l3.3-4.9l6,9.5l1.2-1.7L77.7,47.3L77.7,47.3z M77.6,47.6c0-0.1,0.1-0.2,0.1-0.2"/>
	<path class="st0" d="M77.4,46.5c0.8-1.9,1.3-4.2,1.3-6.7V8H40.1v31.8c0,1.1,0.1,2.2,0.3,3.3l3.7-6.3l3.2,1l5.5-8.2l6.5,7.1l1.9-1.5
		l4.4,5.7l3.3-4.9l6,9.5l1.2-1.7L77.4,46.5L77.4,46.5z"/>
	<polygon class="st0" points="43.6,43.5 43.7,38.9 44.7,38.9 44.6,37.4 47,38.3 43.6,43.5 	"/>
	<polygon class="st0" points="55.6,41.2 56.5,39.8 52.9,30.5 60.6,39.8 60.8,38.7 62,39.9 60.9,37.6 61.2,35.8 65.2,41.4 59,49.6 
		55.6,41.2 	"/>
	<polygon class="st0" points="72.7,49 70.7,44.3 72.1,45 69,37 74.6,45.9 72.7,49 	"/>
	<path class="st2" d="M68.4,16.1c0-0.1-0.2-0.1-0.2-0.1l-5,2.9c0,0,0,0,0,0c0,0,0,0,0,0l-3,1.7v-4.2c0,0,0-0.1,0-0.1
		c0.3-0.1,0.5-0.3,0.5-0.7c0-0.2-0.1-0.3-0.2-0.5S60.3,15,60.1,15c-0.4,0-0.7,0.3-0.7,0.7c0,0.3,0.2,0.6,0.5,0.7c0,0,0,0,0,0.1v4.2
		l-4.6-2.6c0.3-0.6,0-1.4-0.6-1.7c0,0,0,0,0,0L52.6,15c-0.1,0-0.2,0-0.2,0.1c0,0.1,0,0.2,0.1,0.2l2.1,1.2c0,0,0,0,0,0
		c0.4,0.3,0.6,0.8,0.4,1.2L52,16c-0.1,0-0.2,0-0.2,0.1c0,0.1,0,0.2,0.1,0.2l3,1.7c-0.1,0.2-0.3,0.3-0.5,0.3c-0.3,0.1-0.5,0-0.8-0.1
		c0,0,0,0,0,0l-2.1-1.2c-0.1,0-0.2,0-0.2,0.1c0,0.1,0,0.2,0.1,0.2l2.1,1.2c0,0,0,0,0,0c0.2,0.1,0.5,0.2,0.7,0.2
		c0.4,0,0.8-0.2,1.1-0.5l4.6,2.6L56,23c-0.1-0.1-0.3-0.2-0.5-0.2c-0.1,0-0.2,0-0.3,0.1c-0.3,0.2-0.4,0.6-0.2,0.9
		c0.1,0.2,0.3,0.3,0.6,0.3c0.1,0,0.2,0,0.3-0.1c0.3-0.2,0.4-0.5,0.3-0.8l3.7-2.1v4.3c-0.8,0.1-1.5,0.9-1.5,1.9
		c0,0.9,0.7,3.1,1.7,3.1s1.7-2.2,1.7-3.1c0-1-0.7-1.8-1.5-1.9v-4.3l3.7,2.1c0,0.1,0,0.2,0,0.3c0,0.2,0.2,0.3,0.3,0.4
		c0.1,0.1,0.2,0.1,0.3,0.1c0.2,0,0.5-0.1,0.6-0.3c0.2-0.3,0.1-0.7-0.2-0.9c-0.1-0.1-0.2-0.1-0.3-0.1c-0.2,0-0.4,0.1-0.5,0.2
		l-3.7-2.1l2.8-1.6c0.2,0.2,0.4,0.4,0.7,0.5c0.1,0,0.2,0,0.4,0c0.2,0,0.5-0.1,0.7-0.2l2.9-1.7c0.3-0.2,0.5-0.5,0.6-0.8
		C68.7,16.7,68.6,16.4,68.4,16.1L68.4,16.1z M59.8,15.7c0-0.2,0.1-0.3,0.3-0.3c0.1,0,0.2,0,0.2,0.1c0.1,0.1,0.1,0.1,0.1,0.2
		c0,0.2-0.1,0.3-0.3,0.3C59.9,16,59.8,15.8,59.8,15.7L59.8,15.7z M55.7,23.8c0,0-0.1,0-0.2,0c-0.1,0-0.2-0.1-0.3-0.2
		c-0.1-0.2,0-0.4,0.1-0.4c0,0,0.1,0,0.2,0c0.1,0,0.2,0.1,0.3,0.2C55.9,23.5,55.9,23.7,55.7,23.8L55.7,23.8z M61.4,27.4
		c0,0.9-0.7,2.7-1.3,2.7c-0.6,0-1.3-1.8-1.3-2.7c0-0.8,0.6-1.5,1.3-1.5S61.4,26.5,61.4,27.4L61.4,27.4z M64.6,23.2
		c0.1,0,0.1,0,0.2,0c0.2,0.1,0.2,0.3,0.1,0.4c-0.1,0.1-0.3,0.2-0.4,0.1c-0.1,0-0.1-0.1-0.2-0.2c0-0.1,0-0.2,0-0.2
		C64.4,23.2,64.5,23.2,64.6,23.2L64.6,23.2z M68.2,17c-0.1,0.3-0.2,0.5-0.5,0.6l-2.9,1.7c-0.2,0.1-0.5,0.2-0.8,0.1
		c-0.2-0.1-0.4-0.2-0.5-0.3l4.6-2.7C68.3,16.6,68.3,16.8,68.2,17L68.2,17z"/>
	<path class="st2" d="M30.5,60c-0.3-0.1-0.6-0.2-1-0.3c-0.4-0.1-0.8-0.2-1.2-0.4c0.1-0.2,0.2-0.3,0.3-0.5c0.1-0.2,0.2-0.3,0.4-0.5
		c0.4-0.6,0.8-1.2,1.2-1.7c0.4-0.5,0.8-1,1.2-1.6c0.4-0.5,0.9-1.1,1.3-1.7c0.5-0.6,1.1-1.3,1.7-2.1c0.1-0.1,0.2-0.2,0.2-0.3
		c0-0.1,0-0.2-0.1-0.3c0-0.1-0.1-0.2-0.2-0.3c-0.1-0.1-0.2-0.2-0.3-0.3c-1,0.6-2.1,1.2-3,1.9c-1,0.7-1.9,1.4-2.8,2.1
		c-0.9,0.7-1.8,1.4-2.7,2.2c-0.9,0.7-1.8,1.5-2.7,2.2c-0.4,0-0.7-0.1-1.1-0.1c-0.4,0-0.7,0-1.1,0c-1.6,0-3.1,0.1-4.6,0.2
		c-1.5,0.1-2.8,0.3-4.1,0.6c-1.3,0.3-2.4,0.6-3.4,0.9c-1,0.4-1.9,0.8-2.6,1.3c-0.7,0.5-1.2,1-1.5,1.6C4.2,63.4,4,64,4.2,64.7
		c0.1,0.4,0.2,0.8,0.5,1c0.2,0.3,0.5,0.5,0.8,0.7c0.3,0.2,0.7,0.3,1.1,0.4C6.9,66.9,7.3,67,7.7,67c0.4,0,0.8,0,1.1,0
		c0.4,0,0.7-0.1,1-0.1c0.6-0.1,1.2-0.3,1.8-0.5c0.6-0.2,1.2-0.5,1.8-0.7c0.6-0.3,1.2-0.6,1.8-0.9c0.6-0.3,1.2-0.7,1.8-1.1
		c1-0.6,2-1.3,3.1-2.1c1.1-0.8,2.1-1.6,3.2-2.5c0.7,0.1,1.3,0.2,2,0.3c0.7,0.1,1.3,0.3,1.9,0.4c-0.5,0.8-0.9,1.5-1.2,2.3
		c-0.3,0.8-0.5,1.6-0.6,2.5c0,0.3,0,0.6,0.2,1c0.1,0.3,0.3,0.7,0.5,1l0.9,0.5c0-0.1-0.1-0.2-0.1-0.3c-0.1-0.1-0.1-0.3-0.2-0.4
		c-0.1-0.2-0.1-0.3-0.2-0.5c-0.1-0.1-0.1-0.3-0.1-0.4c-0.1-0.4-0.2-0.8-0.1-1.2c0-0.4,0.1-0.9,0.3-1.3c0.2-0.5,0.4-0.9,0.6-1.4
		c0.2-0.5,0.5-1,0.8-1.5c0.5,0.2,1.1,0.3,1.6,0.5c0.5,0.2,1,0.4,1.5,0.6L30.5,60L30.5,60z M14.8,64c-0.6,0.3-1.1,0.6-1.7,0.9
		c-0.6,0.3-1.2,0.5-1.8,0.7c-0.6,0.2-1.1,0.4-1.6,0.5c-0.2,0-0.5,0.1-0.8,0.1c-0.3,0-0.6,0-1,0c-0.3,0-0.7-0.1-1-0.1
		C6.6,66,6.3,65.9,6,65.8c-0.3-0.1-0.5-0.3-0.7-0.5C5.1,65,5,64.8,5,64.5c0-0.6,0.1-1.2,0.5-1.7c0.4-0.5,0.9-0.9,1.6-1.3
		c0.7-0.4,1.5-0.7,2.4-1c0.9-0.3,1.8-0.5,2.8-0.7c1-0.2,1.9-0.3,2.9-0.4c0.9-0.1,1.8-0.2,2.6-0.3c0.8-0.1,1.5-0.1,2-0.1
		c0.5,0,0.9,0,1.1,0c0.2,0,0.4,0,0.6,0c0.2,0,0.4,0,0.6,0c-0.9,0.7-1.9,1.5-2.8,2.1c-0.9,0.7-1.9,1.4-2.9,2
		C15.8,63.4,15.3,63.7,14.8,64L14.8,64z M26.8,56.2c1.4-1.1,2.6-2,3.7-2.9c1.1-0.8,2.1-1.6,3-2.1c-0.4,0.5-0.8,1.1-1.2,1.6
		c-0.4,0.5-0.9,1.1-1.4,1.7c-0.5,0.6-0.9,1.2-1.4,1.7c-0.5,0.6-0.9,1.2-1.3,1.8l-0.7,1.1c-0.5-0.1-1.1-0.3-1.7-0.4
		c-0.6-0.1-1.2-0.2-1.9-0.3L26.8,56.2L26.8,56.2z M33.1,62.6c0.2-0.1,0.4-0.3,0.6-0.4c0.2-0.1,0.4-0.2,0.5-0.4
		c0.2-0.1,0.3-0.2,0.4-0.3l-0.1-0.6c-0.1,0.1-0.3,0.2-0.5,0.4c-0.2,0.1-0.4,0.3-0.7,0.5c-0.2,0.2-0.5,0.3-0.7,0.5
		c-0.2,0.1-0.4,0.3-0.5,0.3c-0.4,0.2-0.6,0.3-0.7,0.2c-0.1-0.1,0-0.4,0.2-1c0.3-0.6,0.6-1.1,0.9-1.7c0.3-0.5,0.7-1.1,1-1.6
		c0.5-0.7,1-1.5,1.5-2.2c0.5-0.7,1-1.4,1.5-2.1c0,0,0.1-0.2,0.2-0.4c0.1-0.2,0.3-0.4,0.4-0.6c0.1-0.2,0.3-0.4,0.4-0.7
		c0.1-0.2,0.2-0.3,0.2-0.4c0-0.1-0.1-0.1-0.3-0.1c-0.2,0-0.4,0.1-0.5,0.3c0,0-0.1,0.1-0.2,0.2c-0.1,0.1-0.1,0.1-0.2,0.2
		c-0.6,0.7-1.1,1.4-1.5,2.2c-0.5,0.7-0.9,1.5-1.4,2.2c-0.3,0.4-0.5,0.9-0.8,1.3c-0.3,0.4-0.5,0.9-0.8,1.3c0,0.1-0.1,0.2-0.2,0.4
		c-0.1,0.2-0.2,0.4-0.4,0.7c-0.1,0.3-0.3,0.5-0.4,0.8c-0.1,0.3-0.2,0.6-0.3,0.8c-0.1,0.3-0.1,0.5-0.1,0.7c0,0.2,0.1,0.3,0.3,0.4
		c0.2,0.1,0.5,0.1,0.7,0c0.3-0.1,0.5-0.2,0.8-0.4C32.7,62.9,32.9,62.8,33.1,62.6L33.1,62.6z M34.4,59c0.1,0,0.3,0,0.5,0
		c0.3,0,0.5,0.1,0.8,0.1l-6.8,10.2h0.8c1-1.6,2.1-3.2,3.2-4.9c1.1-1.7,2.2-3.4,3.3-5c0.3,0.2,0.5,0.5,0.5,0.7c0.1,0.2,0.1,0.5,0,0.8
		c-0.1,0.3-0.2,0.5-0.4,0.7c-0.2,0.2-0.4,0.5-0.6,0.7c-0.2,0.2-0.5,0.4-0.7,0.5c-0.3,0.2-0.5,0.3-0.7,0.3c0,0.1,0.1,0.2,0.1,0.3
		c0,0.1,0.1,0.2,0.1,0.3c0.3-0.2,0.6-0.3,0.9-0.4c0.3-0.1,0.6-0.3,0.9-0.4c0.3-0.2,0.7-0.4,1.1-0.6c0.4-0.3,0.9-0.6,1.4-1l-0.4-0.4
		c-0.2,0.2-0.5,0.4-0.8,0.6c-0.3,0.2-0.6,0.4-0.8,0.6c0.2-0.2,0.3-0.5,0.4-0.7c0.1-0.3,0.2-0.5,0.1-0.8c0-0.4-0.1-0.7-0.3-1
		c-0.2-0.3-0.4-0.5-0.7-0.7l1.3-1.9L37.1,57l-1,1.6c-0.3-0.1-0.7-0.2-1.1-0.2L34.4,59L34.4,59z M39.8,61.2c0.3-0.2,0.6-0.4,0.9-0.6
		c0.3-0.2,0.6-0.4,0.8-0.6c0.3-0.2,0.5-0.4,0.6-0.6c0.1-0.1,0.2-0.3,0.2-0.5c0-0.2,0-0.3,0-0.5c-0.1-0.1-0.2-0.3-0.3-0.3
		c-0.1-0.1-0.3-0.1-0.6-0.1c-0.4,0.1-0.7,0.2-1.1,0.5c-0.3,0.3-0.7,0.6-0.9,0.9c-0.3,0.3-0.5,0.7-0.7,1.1c-0.2,0.4-0.4,0.7-0.4,1
		c-0.1,0.4-0.2,0.8-0.1,1.2c0,0.3,0.2,0.6,0.5,0.7c0.3,0.1,0.7,0.1,1.1,0c0.4-0.1,0.8-0.3,1.2-0.5c0.4-0.2,0.8-0.5,1.1-0.7
		c0.4-0.3,0.6-0.5,0.9-0.6L42.8,61c-0.2,0.2-0.5,0.3-0.7,0.5c-0.2,0.2-0.5,0.3-0.7,0.5c-0.2,0.2-0.5,0.3-0.7,0.4
		c-0.2,0.1-0.5,0.2-0.7,0.3c-0.2,0.1-0.4,0.1-0.6,0.1c-0.2,0-0.3,0-0.4-0.1c-0.1-0.1-0.1-0.3-0.1-0.5c0-0.2,0.1-0.4,0.2-0.6
		C39.2,61.5,39.5,61.3,39.8,61.2L39.8,61.2z M40.2,59.7c0.1-0.2,0.4-0.4,0.6-0.6c0.1-0.1,0.3-0.2,0.4-0.3c0.2-0.1,0.3-0.2,0.4-0.2
		c0.1,0,0.1,0,0.1,0.1c0,0.2-0.1,0.3-0.2,0.5c-0.2,0.2-0.3,0.3-0.6,0.5c-0.2,0.2-0.5,0.4-0.7,0.5c-0.2,0.1-0.5,0.3-0.7,0.4
		c0-0.1,0.1-0.1,0.1-0.2c0-0.1,0.1-0.1,0.1-0.2C39.9,60.1,40,59.9,40.2,59.7L40.2,59.7z M46.8,63.4c0.2,0,0.3,0.1,0.5,0
		c0.2-0.1,0.4-0.2,0.6-0.3c0.3-0.2,0.5-0.3,0.8-0.5c0.3-0.2,0.5-0.4,0.8-0.6c0.2-0.2,0.4-0.3,0.6-0.4L50,60.9
		c-0.1,0.1-0.3,0.2-0.6,0.4c-0.3,0.2-0.5,0.4-0.8,0.6c-0.3,0.2-0.5,0.4-0.8,0.5c-0.2,0.1-0.3,0.2-0.4,0.2c-0.1,0.1-0.2,0-0.2-0.1
		c0-0.2,0.1-0.5,0.3-0.7c0.2-0.3,0.4-0.6,0.6-0.9c0.2-0.3,0.4-0.6,0.7-0.9c0.2-0.3,0.4-0.6,0.6-0.9c0.1-0.2,0.1-0.4,0.1-0.6
		c0-0.1-0.1-0.2-0.2-0.3c-0.1,0-0.2,0-0.4,0c-0.2,0-0.3,0.1-0.5,0.2c-0.2,0.1-0.5,0.3-0.8,0.6c-0.3,0.3-0.7,0.6-1,0.9
		c-0.3,0.3-0.7,0.6-1,0.9c-0.3,0.3-0.6,0.6-0.8,0.8c0.2-0.3,0.3-0.5,0.4-0.8c0.1-0.2,0.2-0.5,0.4-0.7c0.1-0.2,0.2-0.4,0.4-0.7
		c0.1-0.2,0.3-0.5,0.4-0.8c0-0.1,0.1-0.2,0.1-0.3c0-0.1,0.1-0.2,0.1-0.3c0-0.1,0-0.2,0-0.3c0-0.1-0.1-0.1-0.2-0.1
		c-0.1,0-0.2,0-0.3,0.1c-0.1,0.1-0.2,0.2-0.3,0.3c-0.3,0.3-0.7,0.8-1.2,1.3c-0.5,0.5-1.1,1.1-2,1.7l0.1,0.6c0.4-0.3,0.8-0.6,1-0.8
		c0.2-0.2,0.4-0.4,0.6-0.5c0.1-0.1,0.3-0.2,0.3-0.3c0.1-0.1,0.2-0.2,0.3-0.3c-0.1,0.3-0.3,0.5-0.4,0.8c-0.2,0.3-0.3,0.6-0.5,0.9
		c-0.2,0.3-0.3,0.6-0.5,0.9c-0.2,0.3-0.3,0.6-0.4,0.8c0,0.1,0,0.2,0.1,0.3c0.1,0.1,0.2,0.1,0.3,0c0.4-0.3,0.8-0.6,1.2-1
		c0.4-0.4,0.8-0.8,1.3-1.2c0.4-0.4,0.8-0.8,1.2-1.2c0.4-0.4,0.8-0.7,1.1-1c0.1-0.1,0.1-0.1,0.1,0c0,0.1,0,0.1-0.1,0.3
		c-0.1,0.2-0.3,0.4-0.6,0.7c-0.2,0.3-0.5,0.6-0.7,0.9c-0.2,0.3-0.4,0.7-0.5,1c-0.1,0.3-0.2,0.6-0.2,0.9
		C46.5,63.2,46.6,63.3,46.8,63.4L46.8,63.4z M49.8,61.8c0.2-0.2,0.5-0.3,0.7-0.5c0.2-0.2,0.4-0.3,0.6-0.4c0.2-0.1,0.3-0.3,0.5-0.4
		c0.2-0.1,0.3-0.3,0.5-0.5c0,0.2,0.2,0.3,0.3,0.4c0.2,0,0.4,0,0.6-0.2c-0.2,0.1-0.3,0.3-0.5,0.5c-0.2,0.2-0.4,0.4-0.6,0.6
		c-0.2,0.2-0.4,0.4-0.5,0.7c-0.2,0.2-0.3,0.5-0.4,0.7c0,0.2,0,0.4,0,0.6c0,0.1,0.1,0.3,0.2,0.3c0.1,0.1,0.2,0.1,0.4,0.1
		c0.2,0,0.3,0,0.5-0.1c0.2-0.1,0.5-0.2,0.8-0.4c0.3-0.2,0.5-0.4,0.8-0.6c0.3-0.2,0.5-0.4,0.7-0.5c0.2-0.2,0.3-0.3,0.4-0.3l-0.1-0.6
		c-0.1,0-0.2,0.2-0.4,0.3c-0.2,0.2-0.4,0.3-0.7,0.5c-0.2,0.2-0.5,0.4-0.8,0.6c-0.3,0.2-0.5,0.3-0.7,0.4c-0.2,0.1-0.3,0.1-0.4,0.1
		c-0.1,0-0.1,0-0.2-0.1c0,0,0-0.1,0-0.2c0-0.1,0.1-0.2,0.2-0.3c0.2-0.2,0.3-0.5,0.5-0.7c0.2-0.2,0.4-0.5,0.6-0.7
		c0.2-0.2,0.4-0.4,0.6-0.7c0.2-0.2,0.4-0.4,0.6-0.7c0-0.1,0-0.2,0-0.2c0-0.1,0-0.1,0-0.2c0-0.1,0-0.1-0.1-0.1c0,0-0.1,0-0.2,0.1
		c-0.1,0-0.1,0.1-0.2,0.2c-0.1,0.1-0.1,0.1-0.2,0.2c-0.1,0.1-0.2,0.1-0.4,0.2c-0.1,0-0.3,0.1-0.4,0.1c-0.1,0-0.2,0-0.3-0.1
		c-0.1-0.1-0.1-0.2-0.1-0.3c0,0,0.1-0.1,0.2-0.2c0.1-0.1,0.1-0.2,0.2-0.3c0-0.1,0.1-0.2,0.1-0.3c0-0.1,0.1-0.2,0.1-0.3
		c0-0.1,0-0.2,0-0.2c0-0.1-0.1-0.1-0.1-0.1c-0.1,0-0.2,0-0.3,0.1c-0.1,0.1-0.2,0.2-0.4,0.4c-0.1,0.1-0.2,0.3-0.3,0.5
		c-0.1,0.2-0.1,0.3-0.1,0.5c-0.3,0.4-0.6,0.7-1,1c-0.4,0.3-0.8,0.6-1.2,1L49.8,61.8L49.8,61.8z M55.8,61.2c0.3-0.2,0.6-0.4,0.9-0.6
		c0.3-0.2,0.6-0.4,0.8-0.6c0.3-0.2,0.5-0.4,0.6-0.6c0.1-0.1,0.2-0.3,0.2-0.5c0-0.2,0-0.3,0-0.5c-0.1-0.1-0.2-0.3-0.3-0.3
		c-0.1-0.1-0.3-0.1-0.6-0.1c-0.4,0.1-0.7,0.2-1.1,0.5c-0.3,0.3-0.7,0.6-0.9,0.9c-0.3,0.3-0.5,0.7-0.7,1.1c-0.2,0.4-0.4,0.7-0.4,1
		c-0.1,0.4-0.2,0.8-0.1,1.2c0,0.3,0.2,0.6,0.5,0.7c0.3,0.1,0.7,0.1,1.1,0c0.4-0.1,0.8-0.3,1.2-0.5c0.4-0.2,0.8-0.5,1.1-0.7
		c0.4-0.3,0.6-0.5,0.9-0.6L58.7,61c-0.2,0.2-0.5,0.3-0.7,0.5c-0.2,0.2-0.5,0.3-0.7,0.5c-0.2,0.2-0.5,0.3-0.7,0.4
		c-0.2,0.1-0.5,0.2-0.7,0.3c-0.2,0.1-0.4,0.1-0.6,0.1c-0.2,0-0.3,0-0.4-0.1c-0.1-0.1-0.1-0.3-0.1-0.5c0-0.2,0.1-0.4,0.2-0.6
		C55.2,61.5,55.5,61.3,55.8,61.2L55.8,61.2z M56.1,59.7c0.1-0.2,0.4-0.4,0.6-0.6c0.1-0.1,0.3-0.2,0.4-0.3c0.2-0.1,0.3-0.2,0.4-0.2
		c0.1,0,0.1,0,0.1,0.1c0,0.2-0.1,0.3-0.2,0.5c-0.2,0.2-0.3,0.3-0.6,0.5c-0.2,0.2-0.5,0.4-0.7,0.5c-0.2,0.1-0.5,0.3-0.7,0.4
		c0-0.1,0.1-0.1,0.1-0.2c0-0.1,0.1-0.1,0.1-0.2C55.8,60.1,56,59.9,56.1,59.7L56.1,59.7z M58.5,61.8c0.3-0.2,0.6-0.4,0.8-0.6
		c0.2-0.2,0.5-0.4,0.7-0.6c0.1,0,0.1-0.1,0.1-0.1c0,0,0.1,0,0.1,0c0,0,0,0.1,0.1,0.1c0,0,0,0.1,0.1,0.1c0,0.1,0.1,0.1,0.2,0.2
		c0.1,0.1,0.1,0.2,0.2,0.3c0.1,0.1,0.1,0.2,0.2,0.3c0.1,0.1,0.1,0.2,0.1,0.3c0,0.1,0,0.3,0,0.4c0,0.1-0.1,0.2-0.2,0.3
		c-0.2,0.1-0.4,0.2-0.6,0.2c-0.2,0-0.4-0.1-0.5-0.2c-0.2-0.2-0.3-0.3-0.5-0.3c-0.2,0-0.3,0-0.4,0.1c-0.1,0.1-0.1,0.2-0.1,0.3
		c0,0.1,0,0.2,0.1,0.3c0,0.1,0.1,0.2,0.1,0.2c0.1,0.1,0.1,0.1,0.1,0.1c0.2,0.1,0.4,0.2,0.6,0.2c0.2,0,0.4,0,0.6,0
		c0.2,0,0.4-0.1,0.6-0.2c0.2-0.1,0.4-0.2,0.5-0.3c0.2-0.1,0.4-0.2,0.6-0.4c0.2-0.1,0.4-0.3,0.6-0.4c0.2-0.1,0.4-0.3,0.5-0.4
		c0.2-0.1,0.3-0.2,0.4-0.3l-0.1-0.6c-0.2,0.1-0.4,0.3-0.7,0.5c-0.3,0.2-0.6,0.4-0.9,0.6c0-0.2-0.1-0.4-0.2-0.6
		c-0.1-0.2-0.3-0.4-0.4-0.6c-0.1-0.1-0.1-0.2-0.2-0.3c-0.1-0.1-0.1-0.2-0.1-0.3c0-0.1,0-0.2,0-0.2c0,0,0.1-0.1,0.1-0.2
		c0.1-0.1,0.2-0.2,0.3-0.3c0.1-0.1,0.4-0.4,0.6-0.7c0.3-0.3,0.5-0.6,0.5-0.8c0-0.2,0-0.3-0.1-0.4c-0.1-0.1-0.2-0.1-0.3,0
		c-0.1,0-0.2,0.1-0.3,0.2c-0.1,0.1-0.2,0.2-0.3,0.3c-0.1,0.1-0.2,0.2-0.3,0.3c-0.2,0.2-0.4,0.5-0.6,0.7c-0.2,0.3-0.4,0.5-0.5,0.7
		c-0.2,0.2-0.3,0.3-0.5,0.4c-0.1,0.1-0.3,0.2-0.4,0.4c-0.1,0.1-0.3,0.2-0.4,0.4c-0.2,0.1-0.4,0.3-0.6,0.5L58.5,61.8L58.5,61.8z
		 M64.9,62.6c0.2-0.1,0.4-0.3,0.6-0.4c0.2-0.1,0.4-0.2,0.5-0.4c0.2-0.1,0.3-0.2,0.4-0.3l-0.1-0.6c-0.1,0.1-0.3,0.2-0.5,0.4
		c-0.2,0.1-0.4,0.3-0.7,0.5c-0.2,0.2-0.5,0.3-0.7,0.5c-0.2,0.1-0.4,0.3-0.5,0.3c-0.4,0.2-0.6,0.3-0.7,0.2c-0.1-0.1,0-0.4,0.2-1
		c0.3-0.6,0.6-1.2,0.9-1.7c0.3-0.5,0.6-1.1,1-1.6c0.5-0.7,0.9-1.4,1.4-2.1c0.4-0.7,0.9-1.4,1.5-2.2c0,0,0.1-0.2,0.3-0.4
		c0.1-0.2,0.3-0.4,0.4-0.7c0.2-0.2,0.3-0.5,0.4-0.7c0.1-0.2,0.2-0.3,0.2-0.4c0-0.1-0.1-0.1-0.3-0.1c-0.2,0-0.4,0.1-0.5,0.3
		c0,0-0.1,0.1-0.2,0.2c-0.1,0.1-0.1,0.1-0.2,0.2c-0.6,0.7-1.1,1.4-1.5,2.2c-0.5,0.7-0.9,1.5-1.4,2.2c-0.3,0.4-0.5,0.9-0.8,1.3
		c-0.3,0.4-0.5,0.9-0.8,1.3c0,0.1-0.1,0.2-0.2,0.4c-0.1,0.2-0.2,0.4-0.4,0.7c-0.1,0.3-0.3,0.5-0.4,0.8c-0.1,0.3-0.2,0.6-0.3,0.8
		c-0.1,0.3-0.1,0.5-0.1,0.7c0,0.2,0.1,0.3,0.3,0.4c0.2,0.1,0.5,0.1,0.7,0c0.3-0.1,0.5-0.2,0.8-0.4C64.5,62.9,64.7,62.8,64.9,62.6
		L64.9,62.6z M65.7,55.2h3.8l0.3-0.6H66L65.7,55.2L65.7,55.2z M70.3,58.1c-0.3,0-0.6,0.1-0.9,0.2c-0.3,0.1-0.7,0.3-1,0.6
		c-0.3,0.2-0.7,0.5-1,0.8c-0.3,0.3-0.6,0.6-0.9,1c-0.3,0.3-0.5,0.7-0.6,1c-0.2,0.3-0.3,0.6-0.3,0.9c0,0.3,0,0.5,0.1,0.7
		c0.1,0.1,0.2,0.2,0.4,0.2c0.2,0,0.4,0,0.6-0.1c0.2-0.1,0.4-0.2,0.5-0.3c0.2-0.1,0.3-0.2,0.4-0.2c0.1-0.1,0.2-0.1,0.3-0.2
		c0.1-0.1,0.2-0.2,0.3-0.3c-0.1,0.2-0.1,0.3-0.1,0.5c0,0.2,0,0.3,0,0.4c0,0.1,0.1,0.2,0.2,0.2c0.1,0,0.3,0,0.5-0.1
		c0.2-0.1,0.4-0.2,0.7-0.3c0.3-0.2,0.5-0.3,0.8-0.5c0.3-0.2,0.5-0.4,0.8-0.5c0.2-0.2,0.4-0.3,0.6-0.4l-0.1-0.6
		c-0.1,0.1-0.3,0.2-0.5,0.3c-0.2,0.1-0.4,0.3-0.7,0.4c-0.2,0.2-0.4,0.3-0.7,0.4c-0.2,0.1-0.4,0.3-0.5,0.3c-0.2,0.1-0.3,0.2-0.3,0.1
		c0-0.1,0-0.2,0.1-0.4c0.1-0.2,0.2-0.4,0.4-0.7c0.2-0.3,0.3-0.5,0.4-0.6c0.2-0.2,0.3-0.3,0.5-0.5c0.1-0.2,0.3-0.3,0.4-0.4l-0.7,0
		c-0.1,0.1-0.2,0.2-0.3,0.4c-0.1,0.1-0.3,0.3-0.4,0.5c-0.2,0.2-0.3,0.3-0.5,0.5c-0.2,0.2-0.3,0.3-0.5,0.5c-0.2,0.2-0.3,0.3-0.5,0.4
		c-0.2,0.1-0.3,0.3-0.5,0.4c-0.2,0.1-0.3,0.2-0.4,0.2c-0.1,0-0.2,0-0.3,0c-0.1-0.1-0.1-0.3,0-0.5c0.1-0.2,0.2-0.5,0.4-0.7
		c0.2-0.2,0.3-0.5,0.5-0.7c0.2-0.2,0.3-0.3,0.4-0.4c0.2-0.2,0.4-0.3,0.6-0.5c0.2-0.2,0.4-0.3,0.6-0.4c0.1-0.1,0.3-0.2,0.4-0.3
		c0.1-0.1,0.3-0.2,0.4-0.2c0.2-0.1,0.4-0.2,0.6-0.2c0.1,0,0.2,0,0.3,0.1c0,0.1,0,0.2,0,0.3c0,0.1-0.1,0.3-0.3,0.4c0.1,0,0.2,0,0.4,0
		c0.1,0,0.2,0,0.3,0c0.1-0.1,0.2-0.2,0.3-0.4c0.1-0.1,0.1-0.2,0.2-0.4c0-0.1,0-0.2,0-0.3c0-0.1-0.1-0.2-0.2-0.2
		C70.8,58.1,70.6,58.1,70.3,58.1L70.3,58.1z M70.7,62.3c-0.1,0.4-0.1,0.7,0.1,0.9c0.1,0.1,0.2,0.2,0.4,0.2c0.2,0,0.4,0,0.6-0.1
		c0.2-0.1,0.4-0.2,0.5-0.3c0.2-0.1,0.3-0.2,0.4-0.2c0.2-0.1,0.4-0.3,0.6-0.6c-0.1,0.2-0.1,0.3-0.2,0.5c0,0.2,0,0.3,0,0.4
		c0,0.1,0.1,0.2,0.2,0.2c0.1,0,0.2,0,0.5-0.1c0.2-0.1,0.4-0.2,0.7-0.3c0.3-0.2,0.5-0.3,0.8-0.5c0.3-0.2,0.5-0.4,0.8-0.5
		c0.2-0.2,0.4-0.3,0.6-0.4l-0.1-0.6c-0.1,0.1-0.3,0.2-0.5,0.3c-0.2,0.1-0.4,0.3-0.7,0.4c-0.2,0.2-0.4,0.3-0.7,0.4
		c-0.2,0.1-0.4,0.3-0.5,0.3c-0.1,0.1-0.2,0.1-0.3,0.1c0,0-0.1-0.1,0-0.2c0-0.1,0.1-0.2,0.2-0.4c0.1-0.2,0.2-0.3,0.3-0.5
		c0.1-0.2,0.2-0.3,0.3-0.5c0.1-0.2,0.2-0.3,0.3-0.4c0.2-0.2,0.5-0.5,0.7-0.7c0.2-0.2,0.4-0.5,0.6-0.7c0.2-0.2,0.4-0.4,0.5-0.6
		c0.2-0.2,0.3-0.3,0.4-0.4h-0.8c0,0-0.2,0.2-0.4,0.5c-0.2,0.3-0.5,0.6-0.9,0.9c-0.3,0.4-0.7,0.7-1.1,1.1c-0.4,0.4-0.8,0.7-1.1,1.1
		c-0.3,0.3-0.6,0.5-0.9,0.7c-0.3,0.2-0.4,0.2-0.5,0.1c0-0.1,0-0.2,0-0.3c0-0.1,0.1-0.2,0.1-0.4c0.1-0.1,0.1-0.3,0.2-0.4
		c0.1-0.1,0.2-0.3,0.3-0.4c0.1-0.1,0.2-0.3,0.4-0.6c0.2-0.3,0.4-0.5,0.7-0.8c0.3-0.3,0.5-0.6,0.8-0.8c0.3-0.3,0.6-0.5,0.8-0.7
		c0,0,0,0-0.1,0c-0.1,0-0.2,0-0.3,0c-0.1,0-0.2,0-0.3,0c-0.1,0-0.2,0-0.2,0c-0.5,0.4-1,0.9-1.4,1.4c-0.5,0.5-0.8,1-1.1,1.5
		C71,61.5,70.8,62,70.7,62.3L70.7,62.3z M76.3,61.8c0.2-0.2,0.5-0.3,0.7-0.5c0.2-0.2,0.4-0.3,0.6-0.4c0.2-0.1,0.3-0.3,0.5-0.4
		c0.2-0.1,0.3-0.3,0.5-0.5c0,0.2,0.2,0.3,0.3,0.4c0.2,0,0.4,0,0.6-0.2c-0.2,0.1-0.3,0.3-0.5,0.5c-0.2,0.2-0.4,0.4-0.6,0.6
		c-0.2,0.2-0.4,0.4-0.5,0.7c-0.2,0.2-0.3,0.5-0.4,0.7c0,0.2,0,0.4,0,0.6c0,0.1,0.1,0.3,0.2,0.3c0.1,0.1,0.2,0.1,0.4,0.1
		c0.2,0,0.3,0,0.5-0.1c0.2-0.1,0.5-0.2,0.8-0.4c0.3-0.2,0.5-0.4,0.8-0.6c0.3-0.2,0.5-0.4,0.7-0.5c0.2-0.2,0.3-0.3,0.4-0.3l-0.1-0.6
		c-0.1,0-0.2,0.2-0.4,0.3c-0.2,0.2-0.4,0.3-0.7,0.5c-0.2,0.2-0.5,0.4-0.8,0.6c-0.3,0.2-0.5,0.3-0.7,0.4c-0.2,0.1-0.3,0.1-0.4,0.1
		c-0.1,0-0.1,0-0.2-0.1c0,0,0-0.1,0-0.2c0-0.1,0.1-0.2,0.2-0.3c0.2-0.2,0.3-0.5,0.5-0.7c0.2-0.2,0.4-0.5,0.6-0.7
		c0.2-0.2,0.4-0.4,0.6-0.7c0.2-0.2,0.4-0.4,0.6-0.7c0-0.1,0-0.2,0-0.2c0-0.1,0-0.1,0-0.2c0-0.1,0-0.1-0.1-0.1c0,0-0.1,0-0.2,0.1
		c-0.1,0-0.1,0.1-0.2,0.2c-0.1,0.1-0.1,0.1-0.2,0.2c-0.1,0.1-0.2,0.1-0.4,0.2c-0.1,0-0.3,0.1-0.4,0.1c-0.1,0-0.2,0-0.3-0.1
		C79,59.4,79,59.3,79,59.2c0,0,0.1-0.1,0.2-0.2c0.1-0.1,0.1-0.2,0.2-0.3c0-0.1,0.1-0.2,0.1-0.3c0-0.1,0.1-0.2,0.1-0.3
		c0-0.1,0-0.2,0-0.2c0-0.1-0.1-0.1-0.1-0.1c-0.1,0-0.2,0-0.3,0.1c-0.1,0.1-0.2,0.2-0.4,0.4c-0.1,0.1-0.2,0.3-0.3,0.5
		c-0.1,0.2-0.1,0.3-0.1,0.5c-0.3,0.4-0.6,0.7-1,1c-0.4,0.3-0.8,0.6-1.2,1L76.3,61.8L76.3,61.8z M85.2,58.1c-0.3,0-0.6,0.1-0.9,0.2
		c-0.3,0.1-0.7,0.3-1,0.6c-0.3,0.2-0.7,0.5-1,0.8c-0.3,0.3-0.6,0.6-0.9,1c-0.3,0.3-0.5,0.7-0.6,1c-0.2,0.3-0.3,0.6-0.3,0.9
		c0,0.3,0,0.5,0.1,0.7c0.1,0.1,0.2,0.2,0.4,0.2c0.2,0,0.4,0,0.6-0.1c0.2-0.1,0.4-0.2,0.5-0.3c0.2-0.1,0.3-0.2,0.4-0.2
		c0.1-0.1,0.2-0.1,0.3-0.2c0.1-0.1,0.2-0.2,0.3-0.3c-0.1,0.2-0.1,0.3-0.1,0.5c0,0.2,0,0.3,0,0.4c0,0.1,0.1,0.2,0.2,0.2
		c0.1,0,0.3,0,0.5-0.1c0.2-0.1,0.4-0.2,0.7-0.3c0.3-0.2,0.5-0.3,0.8-0.5c0.3-0.2,0.5-0.4,0.8-0.5c0.2-0.2,0.4-0.3,0.6-0.4l-0.1-0.6
		c-0.1,0.1-0.3,0.2-0.5,0.3c-0.2,0.1-0.4,0.3-0.7,0.4c-0.2,0.2-0.4,0.3-0.7,0.4c-0.2,0.1-0.4,0.3-0.5,0.3c-0.2,0.1-0.3,0.2-0.3,0.1
		c0-0.1,0-0.2,0.1-0.4c0.1-0.2,0.2-0.4,0.4-0.7c0.2-0.3,0.3-0.5,0.4-0.6c0.2-0.2,0.3-0.3,0.5-0.5c0.1-0.2,0.3-0.3,0.4-0.4l-0.7,0
		c-0.1,0.1-0.2,0.2-0.3,0.4c-0.1,0.1-0.3,0.3-0.4,0.5c-0.2,0.2-0.3,0.3-0.5,0.5c-0.2,0.2-0.3,0.3-0.5,0.5c-0.2,0.2-0.3,0.3-0.5,0.4
		c-0.2,0.1-0.3,0.3-0.5,0.4c-0.2,0.1-0.3,0.2-0.4,0.2c-0.1,0-0.2,0-0.3,0c-0.1-0.1-0.1-0.3,0-0.5c0.1-0.2,0.2-0.5,0.4-0.7
		c0.2-0.2,0.3-0.5,0.5-0.7c0.2-0.2,0.3-0.3,0.4-0.4c0.2-0.2,0.4-0.3,0.6-0.5c0.2-0.2,0.4-0.3,0.6-0.4c0.1-0.1,0.3-0.2,0.4-0.3
		c0.1-0.1,0.3-0.2,0.4-0.2c0.2-0.1,0.4-0.2,0.6-0.2c0.1,0,0.2,0,0.3,0.1c0,0.1,0,0.2,0,0.3c0,0.1-0.1,0.3-0.3,0.4c0.1,0,0.2,0,0.4,0
		c0.1,0,0.2,0,0.3,0c0.1-0.1,0.2-0.2,0.3-0.4c0.1-0.1,0.1-0.2,0.2-0.4c0-0.1,0-0.2,0-0.3c0-0.1-0.1-0.2-0.2-0.2
		C85.7,58.1,85.5,58.1,85.2,58.1L85.2,58.1z M90.2,63.4c0.2,0,0.3,0.1,0.5,0c0.2-0.1,0.4-0.2,0.6-0.3c0.3-0.2,0.5-0.3,0.8-0.5
		c0.3-0.2,0.5-0.4,0.8-0.6c0.2-0.2,0.4-0.3,0.6-0.4l-0.1-0.6c-0.1,0.1-0.3,0.2-0.6,0.4c-0.3,0.2-0.5,0.4-0.8,0.6
		c-0.3,0.2-0.5,0.4-0.8,0.5c-0.2,0.1-0.3,0.2-0.4,0.2c-0.1,0.1-0.2,0-0.2-0.1c0-0.2,0.1-0.5,0.3-0.7c0.2-0.3,0.4-0.6,0.6-0.9
		c0.2-0.3,0.4-0.6,0.7-0.9c0.2-0.3,0.4-0.6,0.6-0.9c0.1-0.2,0.1-0.4,0.1-0.6c0-0.1-0.1-0.2-0.2-0.3c-0.1,0-0.2,0-0.4,0
		c-0.2,0-0.3,0.1-0.5,0.2c-0.2,0.1-0.5,0.3-0.8,0.6c-0.3,0.3-0.7,0.6-1,0.9c-0.3,0.3-0.7,0.6-1,0.9c-0.3,0.3-0.6,0.6-0.8,0.8
		c0.2-0.3,0.3-0.5,0.4-0.8c0.1-0.2,0.2-0.5,0.4-0.7c0.1-0.2,0.2-0.4,0.4-0.7c0.1-0.2,0.3-0.5,0.4-0.8c0-0.1,0.1-0.2,0.1-0.3
		c0-0.1,0.1-0.2,0.1-0.3c0-0.1,0-0.2,0-0.3c0-0.1-0.1-0.1-0.2-0.1c-0.1,0-0.2,0-0.3,0.1c-0.1,0.1-0.2,0.2-0.3,0.3
		c-0.3,0.3-0.7,0.8-1.2,1.3c-0.5,0.5-1.1,1.1-2,1.7l0.1,0.6c0.4-0.3,0.8-0.6,1-0.8c0.2-0.2,0.4-0.4,0.6-0.5c0.1-0.1,0.3-0.2,0.3-0.3
		c0.1-0.1,0.2-0.2,0.3-0.3c-0.1,0.3-0.3,0.5-0.4,0.8c-0.2,0.3-0.3,0.6-0.5,0.9c-0.2,0.3-0.3,0.6-0.5,0.9c-0.2,0.3-0.3,0.6-0.4,0.8
		c0,0.1,0,0.2,0.1,0.3c0.1,0.1,0.2,0.1,0.3,0c0.4-0.3,0.8-0.6,1.2-1c0.4-0.4,0.8-0.8,1.3-1.2c0.4-0.4,0.8-0.8,1.2-1.2
		c0.4-0.4,0.8-0.7,1.1-1c0.1-0.1,0.1-0.1,0.1,0c0,0.1,0,0.1-0.1,0.3c-0.1,0.2-0.3,0.4-0.6,0.7c-0.2,0.3-0.5,0.6-0.7,0.9
		c-0.2,0.3-0.4,0.7-0.5,1c-0.1,0.3-0.2,0.6-0.2,0.9C89.9,63.2,90.1,63.3,90.2,63.4L90.2,63.4z M95.2,62.6c0.2-0.1,0.4-0.3,0.6-0.4
		c0.2-0.1,0.4-0.2,0.5-0.4c0.2-0.1,0.3-0.2,0.4-0.3l-0.1-0.6c-0.1,0.1-0.3,0.2-0.5,0.4c-0.2,0.1-0.4,0.3-0.7,0.5
		c-0.2,0.2-0.5,0.3-0.7,0.5c-0.2,0.1-0.4,0.3-0.5,0.3c-0.4,0.2-0.6,0.3-0.7,0.2c-0.1-0.1,0-0.4,0.2-1c0.3-0.6,0.6-1.2,0.9-1.7
		c0.3-0.5,0.6-1.1,1-1.6c0.5-0.7,0.9-1.4,1.4-2.1c0.4-0.7,0.9-1.4,1.5-2.2c0,0,0.1-0.2,0.3-0.4c0.1-0.2,0.3-0.4,0.4-0.7
		c0.2-0.2,0.3-0.5,0.4-0.7c0.1-0.2,0.2-0.3,0.2-0.4c0-0.1-0.1-0.1-0.3-0.1c-0.2,0-0.4,0.1-0.5,0.3c0,0-0.1,0.1-0.2,0.2
		c-0.1,0.1-0.1,0.1-0.2,0.2c-0.6,0.7-1.1,1.4-1.5,2.2c-0.5,0.7-0.9,1.5-1.4,2.2c-0.3,0.4-0.5,0.9-0.8,1.3c-0.3,0.4-0.5,0.9-0.8,1.3
		c0,0.1-0.1,0.2-0.2,0.4c-0.1,0.2-0.2,0.4-0.4,0.7c-0.1,0.3-0.3,0.5-0.4,0.8c-0.1,0.3-0.2,0.6-0.3,0.8c-0.1,0.3-0.1,0.5-0.1,0.7
		c0,0.2,0.1,0.3,0.3,0.4c0.2,0.1,0.5,0.1,0.7,0c0.3-0.1,0.5-0.2,0.8-0.4C94.8,62.9,95,62.8,95.2,62.6L95.2,62.6z M95.9,55.2h3.8
		l0.3-0.6h-3.8L95.9,55.2L95.9,55.2z"/>
	<path class="st3" d="M40.4,74.5c-0.2,0.3-0.4,0.6-0.6,0.7c-0.2,0.1-0.5,0.2-0.8,0.2c-0.2,0-0.5-0.1-0.7-0.3
		c-0.2-0.2-0.4-0.4-0.5-0.7c-0.1-0.3-0.2-0.7-0.2-1.1c0-0.2,0-0.4,0-0.6h3c0-0.7-0.2-1.2-0.5-1.6c-0.3-0.3-0.7-0.5-1.3-0.5
		c-0.4,0-0.8,0.1-1.1,0.3c-0.3,0.2-0.6,0.5-0.8,0.9c-0.2,0.4-0.3,0.9-0.3,1.4c0,0.5,0.1,0.9,0.3,1.3c0.2,0.4,0.4,0.7,0.8,0.9
		c0.3,0.2,0.7,0.3,1.2,0.3c0.4,0,0.8-0.1,1.1-0.4c0.3-0.3,0.5-0.5,0.6-0.9L40.4,74.5L40.4,74.5z M38.8,70.9c0.3,0,0.5,0.2,0.7,0.5
		c0.2,0.3,0.2,0.7,0.2,1.2h-2.1c0.1-0.6,0.2-1,0.4-1.3C38.2,71,38.5,70.9,38.8,70.9L38.8,70.9L38.8,70.9z M44,68.3
		c-0.3,0.1-0.6,0.1-1,0.1c-0.2,0-0.4,0-0.6,0v0.2c0.3,0,0.5,0.1,0.6,0.2c0.1,0.1,0.2,0.3,0.2,0.6v5.4c0,0.3-0.1,0.4-0.2,0.5
		c-0.1,0.1-0.3,0.1-0.6,0.1v0.2c0.6,0,1,0,1.2,0c0.2,0,0.6,0,1.2,0v-0.2c-0.3,0-0.5,0-0.6-0.1C44,75.3,44,75.1,44,74.8V68.3L44,68.3
		z M47.4,68.4c-0.2,0-0.3,0.1-0.4,0.2c-0.1,0.1-0.2,0.3-0.2,0.4c0,0.2,0.1,0.3,0.2,0.4c0.1,0.1,0.3,0.2,0.4,0.2
		c0.2,0,0.3-0.1,0.4-0.2c0.1-0.1,0.2-0.3,0.2-0.4c0-0.2-0.1-0.3-0.2-0.4C47.7,68.5,47.6,68.4,47.4,68.4L47.4,68.4L47.4,68.4z
		 M47.9,70.7c-0.3,0.1-0.6,0.1-1,0.1c-0.2,0-0.4,0-0.6,0V71c0.3,0,0.5,0.1,0.6,0.2c0.1,0.1,0.2,0.3,0.2,0.6v3c0,0.3-0.1,0.4-0.2,0.5
		c-0.1,0.1-0.3,0.1-0.6,0.1v0.2c0.6,0,1,0,1.2,0c0.2,0,0.6,0,1.2,0v-0.2c-0.3,0-0.5,0-0.6-0.1c-0.1-0.1-0.2-0.3-0.2-0.5V70.7
		L47.9,70.7z M51.9,70.7c-0.4,0-0.7,0.1-1,0.3c-0.3,0.2-0.4,0.5-0.4,0.9c0,0.2,0.1,0.5,0.2,0.6c0.1,0.2,0.3,0.3,0.4,0.5
		c0.2,0.1,0.4,0.3,0.7,0.5c0.4,0.2,0.7,0.4,0.8,0.6c0.2,0.2,0.3,0.4,0.3,0.6c0,0.3-0.1,0.5-0.3,0.7s-0.4,0.2-0.6,0.2
		c-0.4,0-0.8-0.1-0.9-0.4c-0.2-0.3-0.3-0.7-0.4-1.3h-0.2c0,0.9,0,1.5,0,1.9h0.2c0-0.1,0-0.2,0.1-0.3c0-0.1,0.1-0.1,0.1-0.1
		c0,0,0.1,0,0.1,0c0.1,0.1,0.3,0.2,0.4,0.3c0.2,0.1,0.5,0.1,0.8,0.1c0.5,0,0.8-0.1,1.2-0.4c0.3-0.2,0.5-0.6,0.5-1
		c0-0.2-0.1-0.5-0.2-0.7c-0.1-0.2-0.3-0.4-0.4-0.5c-0.2-0.1-0.4-0.3-0.7-0.5c-0.1-0.1-0.2-0.1-0.3-0.2c-0.3-0.2-0.6-0.4-0.7-0.5
		c-0.2-0.1-0.2-0.3-0.2-0.6c0-0.2,0.1-0.4,0.2-0.5c0.1-0.1,0.3-0.2,0.6-0.2c0.4,0,0.7,0.1,0.9,0.4c0.2,0.3,0.3,0.6,0.4,1h0.2
		c0-0.8,0-1.3,0-1.6h-0.2c0,0.3-0.1,0.4-0.2,0.4c0,0-0.1,0-0.2-0.1c-0.1-0.1-0.3-0.2-0.4-0.2C52.4,70.7,52.2,70.7,51.9,70.7
		L51.9,70.7L51.9,70.7z M56.9,75.8c0.3,0,0.6-0.1,0.8-0.2c0.2-0.1,0.5-0.3,0.7-0.7c0,0.3,0.1,0.5,0.2,0.6c0.1,0.2,0.3,0.2,0.6,0.2
		c0.2,0,0.3,0,0.4-0.1c0.1-0.1,0.3-0.1,0.4-0.3L60,75.3c-0.1,0.1-0.1,0.1-0.2,0.1c-0.1,0-0.1,0.1-0.2,0.1c-0.1,0-0.2,0-0.2-0.1
		c0-0.1-0.1-0.2-0.1-0.3v-2.6c0-0.3,0-0.6-0.1-0.8c-0.1-0.2-0.2-0.4-0.3-0.5c-0.3-0.2-0.6-0.4-1.1-0.4c-0.3,0-0.5,0-0.8,0.1
		c-0.2,0.1-0.4,0.2-0.6,0.3c-0.1,0.1-0.3,0.2-0.3,0.3c-0.1,0.1-0.1,0.2-0.1,0.4c0,0.2,0,0.3,0.1,0.4c0.1,0.1,0.2,0.2,0.4,0.2
		c0.2,0,0.3,0,0.4-0.1C57,72.1,57,72,57,71.8c0-0.2,0-0.3-0.1-0.4c-0.1-0.1-0.2-0.2-0.3-0.2c0.2-0.2,0.5-0.3,0.9-0.3
		c0.3,0,0.5,0.1,0.7,0.2c0.2,0.1,0.2,0.4,0.2,0.8v0.6c0,0.2-0.1,0.3-0.3,0.4c-0.2,0.1-0.4,0.2-0.8,0.3c-0.3,0.1-0.6,0.2-0.8,0.3
		c-0.2,0.1-0.4,0.3-0.6,0.4c-0.2,0.2-0.2,0.4-0.2,0.7c0,0.4,0.1,0.6,0.3,0.8C56.2,75.7,56.5,75.8,56.9,75.8L56.9,75.8L56.9,75.8z
		 M57.3,75.4c-0.2,0-0.4-0.1-0.6-0.2c-0.1-0.1-0.2-0.4-0.2-0.6c0-0.2,0.1-0.4,0.2-0.6c0.1-0.2,0.2-0.3,0.4-0.4
		c0.1-0.1,0.3-0.2,0.6-0.3c0.2-0.1,0.4-0.2,0.5-0.2c0.1-0.1,0.2-0.1,0.2-0.2v1.9C58.1,75.2,57.7,75.4,57.3,75.4L57.3,75.4L57.3,75.4
		z M64.3,70.7c-0.3,0-0.6,0.1-0.9,0.3c-0.3,0.2-0.5,0.4-0.6,0.8v-3.4c-0.3,0.1-0.6,0.1-1,0.1c-0.2,0-0.4,0-0.6,0v0.2
		c0.3,0,0.5,0.1,0.6,0.2c0.1,0.1,0.2,0.3,0.2,0.6v5.8c0,0.2,0,0.4-0.1,0.6l0.2,0.1l0.7-0.6c0.2,0.2,0.4,0.3,0.6,0.4
		c0.2,0.1,0.4,0.1,0.7,0.1c0.4,0,0.7-0.1,1.1-0.3c0.3-0.2,0.6-0.5,0.8-0.9c0.2-0.4,0.3-0.9,0.3-1.4c0-0.8-0.2-1.5-0.5-1.9
		C65.3,70.9,64.9,70.7,64.3,70.7L64.3,70.7L64.3,70.7z M63.9,75.6c-0.2,0-0.4,0-0.6-0.1c-0.2-0.1-0.4-0.2-0.5-0.3v-3
		c0.1-0.4,0.3-0.7,0.5-0.9c0.2-0.2,0.5-0.3,0.7-0.3c0.4,0,0.7,0.2,0.9,0.6c0.2,0.4,0.3,1,0.3,1.7c0,0.8-0.1,1.4-0.3,1.8
		C64.7,75.4,64.4,75.6,63.9,75.6L63.9,75.6L63.9,75.6z M71.9,74.5c-0.2,0.3-0.4,0.6-0.6,0.7c-0.2,0.1-0.5,0.2-0.8,0.2
		c-0.2,0-0.5-0.1-0.7-0.3c-0.2-0.2-0.4-0.4-0.5-0.7c-0.1-0.3-0.2-0.7-0.2-1.1c0-0.2,0-0.4,0-0.6h3c0-0.7-0.2-1.2-0.5-1.6
		c-0.3-0.3-0.7-0.5-1.3-0.5c-0.4,0-0.8,0.1-1.1,0.3c-0.3,0.2-0.6,0.5-0.8,0.9c-0.2,0.4-0.3,0.9-0.3,1.4c0,0.5,0.1,0.9,0.3,1.3
		c0.2,0.4,0.4,0.7,0.8,0.9c0.3,0.2,0.7,0.3,1.2,0.3c0.4,0,0.8-0.1,1.1-0.4c0.3-0.3,0.5-0.5,0.6-0.9L71.9,74.5L71.9,74.5z M70.3,70.9
		c0.3,0,0.5,0.2,0.7,0.5c0.2,0.3,0.2,0.7,0.2,1.2h-2.1c0.1-0.6,0.2-1,0.4-1.3C69.7,71,70,70.9,70.3,70.9L70.3,70.9L70.3,70.9z
		 M75.5,69.2c-0.2,0.1-0.5,0.1-0.9,0.1v1.5h-0.9V71h0.9v3.2c0,0.3,0,0.6,0.1,0.8c0.1,0.2,0.2,0.4,0.3,0.5c0.1,0.1,0.2,0.2,0.4,0.2
		c0.1,0.1,0.3,0.1,0.5,0.1c0.7,0,1.1-0.4,1.2-1.3l-0.2,0c-0.1,0.4-0.2,0.6-0.4,0.8c-0.1,0.2-0.3,0.2-0.5,0.2c-0.2,0-0.3-0.1-0.5-0.2
		c-0.1-0.1-0.2-0.3-0.2-0.6V71h1.4v-0.2h-1.4V69.2L75.5,69.2z M79.9,68.3c-0.3,0.1-0.6,0.1-1,0.1c-0.2,0-0.4,0-0.6,0v0.2
		c0.3,0,0.5,0.1,0.6,0.2c0.1,0.1,0.2,0.3,0.2,0.6v5.4c0,0.3-0.1,0.4-0.2,0.5c-0.1,0.1-0.3,0.1-0.6,0.1v0.2c0.6,0,1,0,1.1,0
		c0.2,0,0.5,0,1.1,0v-0.2c-0.2,0-0.4,0-0.5-0.1c-0.1-0.1-0.1-0.3-0.1-0.5v-2.1c0-0.3,0.1-0.6,0.2-0.9c0.1-0.3,0.3-0.5,0.5-0.6
		c0.2-0.1,0.4-0.2,0.7-0.2c0.3,0,0.5,0.1,0.6,0.3c0.1,0.2,0.2,0.5,0.2,0.8v2.7c0,0.3,0,0.4-0.1,0.5c-0.1,0.1-0.3,0.1-0.5,0.1v0.2
		c0.5,0,0.9,0,1.1,0c0.2,0,0.6,0,1.1,0v-0.2c-0.3,0-0.5,0-0.6-0.1c-0.1-0.1-0.2-0.3-0.2-0.5v-2.5c0-0.3,0-0.6-0.1-0.8
		c-0.1-0.2-0.1-0.3-0.3-0.5c-0.2-0.2-0.6-0.4-1-0.4c-0.4,0-0.7,0.1-1,0.3c-0.3,0.2-0.5,0.5-0.7,0.9V68.3L79.9,68.3z"/>
</g>
</svg>
